<svg height="512pt" viewBox="0 0 512.00185 512" width="512pt" xmlns="http://www.w3.org/2000/svg"><path style="fill: #FFFFFF;" d="m431.113281 239.988281c44.035157 0 80.316407-35.414062 80.882813-78.941406.277344-21.574219-7.910156-41.90625-23.058594-57.25-15.148438-15.347656-35.367188-23.800781-56.933594-23.800781h-51.984375c-41.316406 0-80.054687 20.332031-103.683593 54.402344l-49.316407 67.433593v-2.84375c0-33.082031-26.914062-59.996093-59.996093-59.996093h-10c-33.082032 0-59.996094 26.914062-59.996094 59.996093v151.707031c-5.1875.863282-10.832032 1.285157-17.03125 1.285157-21.5625 0-41.78125 8.453125-56.933594 23.800781-15.148438 15.34375-23.335938 35.675781-23.0546875 57.25.5624995 43.527344 36.8476565 78.9375 80.8828125 78.9375h50.394531c48.160156 0 93.835938-23.246094 122.179688-62.183594l152.722656-209.796875zm-274.089843-61h10c11.027343 0 19.996093 8.972657 19.996093 20v57.527344l-49.996093 68.363281v-125.890625c0-11.027343 8.972656-20 20-20zm64.101562 247.257813c-20.839844 28.632812-54.425781 45.726562-89.839844 45.726562h-50.394531c-22.261719 0-40.605469-17.703125-40.886719-39.460937-.140625-10.792969 3.953125-20.960938 11.523438-28.632813 7.578125-7.675781 17.6875-11.902344 28.46875-11.902344 38.105468 0 65.382812-12.316406 85.84375-38.757812l.164062-.214844 142.769532-195.207031.320312-.445313c16.386719-23.742187 42.238281-37.359374 70.925781-37.359374h51.984375c10.78125 0 20.894532 4.226562 28.46875 11.902343 7.574219 7.671875 11.667969 17.839844 11.527344 28.632813-.28125 21.757812-18.625 39.460937-40.890625 39.460937h-45.28125zm-59.101562-306.253906c33.082031 0 59.996093-26.914063 59.996093-59.996094 0-33.082032-26.914062-59.996094-59.996093-59.996094-33.082032 0-59.996094 26.914062-59.996094 59.996094 0 33.082031 26.914062 59.996094 59.996094 59.996094zm0-79.992188c11.027343 0 19.996093 8.96875 19.996093 19.996094s-8.96875 20-19.996093 20c-11.027344 0-20-8.972656-20-20s8.972656-19.996094 20-19.996094zm267.484374 270.894531 81.6875 82.292969-28.386718 28.179688-33.792969-34.042969v124.644531h-39.996094v-123.660156l-32.816406 33.058594-28.386719-28.179688zm0 0"/></svg>