<svg height="512pt" viewBox="0 0 512 512" width="512pt" xmlns="http://www.w3.org/2000/svg"><path style="fill: #FFFFFF;" d="m511.933594 270.609375-.222656-2.390625c.1875-4.058594.289062-8.128906.289062-12.21875 0-68.382812-26.628906-132.667969-74.980469-181.019531-48.351562-48.351563-112.640625-74.980469-181.019531-74.980469s-132.667969 26.628906-181.019531 74.980469c-48.351563 48.351562-74.980469 112.636719-74.980469 181.019531 0 1.765625.0273438 3.527344.0625 5.289062-.0625 3.585938-.0820312 7.230469-.0351562 10.945313.0039062.335937.0195312.667969.0429687 1.003906 2.0351565 25.835938 6.4023435 48.117188 13.3632815 68.117188.046875.140625.101562.28125.152344.421875 8.695312 22.761718 19.402343 42.964844 31.820312 60.050781.085938.117187.175781.238281.265625.355469.28125.363281.566406.71875.847656 1.078125 8.421875 11.925781 17.925781 23.21875 28.460938 33.757812 48.351562 48.351563 112.640625 74.980469 181.019531 74.980469s132.667969-26.628906 181.019531-74.980469c43.375-43.375 69.25-99.570312 74.125-160.042969.695313-1.984374 1-4.136718.789063-6.367187zm-166.832032 193.070313c5.59375-3.371094 11.023438-6.976563 16.261719-10.808594.039063-.027344.074219-.054688.113281-.082032 22.792969-17.007812 42.671876-39.226562 57.496094-64.261718 13.65625-22.414063 19.875-44.285156 23.765625-60.839844.046875-.210938.09375-.421875.132813-.636719.710937-3.742187 1.488281-7.4375 2.316406-10.984375.0625-.277344.121094-.558594.167969-.839844.503906-2.914062.691406-5.535156.855469-7.84375.085937-1.210937.167968-2.355468.277343-3.253906.007813-.066406.019531-.125.023438-.191406l.996093-8.847656c.347657-2.894532.238282-5.417969.160157-7.265625-.023438-.589844-.054688-1.261719-.046875-1.554688.007812-.210937.011718-.421875.007812-.632812-.105468-8.101563.078125-12.570313.089844-12.835938.011719-.21875-.003906-.429687-.003906-.644531.007812-.78125-.027344-1.570312-.148438-2.367188-.003906-.046874-.675781-4.5625-1.445312-12.789062-.019532-.207031-.042969-.410156-.070313-.613281-.035156-.277344-.074219-.929688-.109375-1.503907-.113281-1.828124-.265625-4.324218-.921875-7.179687l-1.90625-8.589844c-.015625-.066406-.027343-.136719-.046875-.207031-.203125-.855469-.398437-1.957031-.605468-3.121094-.394532-2.230468-.847657-4.765625-1.648438-7.570312-.078125-.273438-.164062-.546875-.257812-.816406-1.203126-3.449219-2.339844-6.945313-3.382813-10.394532-.0625-.210937-.132813-.421875-.207031-.628906-5.4375-15.488281-13.621094-35.796875-28.796875-55.585938-16.25-21.796874-36.714844-40.34375-59.191407-53.644531-.039062-.023437-.078124-.046875-.121093-.070312-26.253907-15.210938-56.390625-24.386719-87.175781-26.546875-3.320313-.386719-6.390626-.25-8.882813-.140625-1.285156.058593-2.503906.113281-3.433594.082031-.144531-.007812-.289062-.011719-.433593-.011719l-5.382813-.039062c-3.265625-.171875-6.09375-.007813-8.828125.515625-2.210938.339844-4.601562.566406-7.121094.804687-5.058594.480469-10.746094 1.019531-16.628906 2.6875-17.566406 2.953125-33.558594 10.0625-47.199219 16.519531-.421875.199219-.832031.417969-1.230469.65625-3.171874 1.878907-6.40625 3.667969-9.617187 5.316407-.105469.054687-.210937.109375-.3125.164062-2.921875 1.589844-5.339844 3.378907-7.472656 4.953125-1.171875.871094-2.28125 1.691406-3.234375 2.289063-.082032.050781-.160156.101562-.238282.152343l-5.011718 3.289063c-.585938.382813-1.140625.808594-1.667969 1.269531l-4.554687 3.996094c-.082032.074219-.164063.148438-.242188.222656-.960938.878906-2.136719 1.820313-3.378906 2.816406-1.878906 1.507813-4.007813 3.214844-6.117188 5.285157-11.5625 11.078125-22.144531 24.414062-32.34375 40.769531-.101562.160156-.199218.324219-.296875.492188-7.875 13.78125-14.148437 29.488281-19.175781 48.023437-.054688.195313-.101562.394531-.148438.59375-3.347656 14.699219-4.757812 30.925781-4.4375 51.066406.007813.464844.035157.929688.085938 1.394531 2.160156 19.699219 5.546875 35.359376 10.65625 49.289063.074219.199219.152344.398437.234375.59375 7.046875 16.933594 14.832031 30.953125 23.804687 42.867187.128907.167969.257813.332032.390626.492188 11.355468 13.832031 22.519531 24.75 34.136718 33.367188 2.183594 1.660156 4.308594 2.945312 6.1875 4.082031 1.1875.714843 2.308594 1.390625 3.148438 1.992187.082031.058594.164062.117188.25.175782l4.390625 3.011718c.640625.441406 1.316406.832032 2.019531 1.167969l4.804688 2.292969c.089843.042968.183593.085937.273437.128906.78125.351562 1.78125.921875 2.847656 1.527344 1.964844 1.113281 4.410157 2.503906 7.320313 3.609375.125.050781.25.09375.378906.140625 2.894531 1.011718 5.746094 2.132812 8.472656 3.339844.5.222656 1.015625.417968 1.535156.582031 13.785157 4.367187 27.363282 8.320312 41.800782 8.816406 2.960937.46875 5.792968.601563 8.476562.601563 1.921875 0 3.761719-.070313 5.515625-.132813 2.078125-.082031 4.054688-.152344 5.746094-.085937 3.335937.269531 6.238281-.148438 8.285156-.546876l4.25-.601562c.15625-.023438.3125-.046875.46875-.074219.5-.089843 1.414063-.148437 2.296875-.210937 2.042969-.136719 4.789063-.320313 7.785156-1.101563 24.5-5.066406 46.699219-15.0625 65.984376-29.71875.058593-.046875.117187-.089843.175781-.136719 15.683593-12.28125 29.300781-28.242187 39.386719-46.160156 9.148437-15.589844 12.777343-30.226562 15.460937-42.726562.066406-.308594.121094-.617188.167969-.929688.332031-2.230468.753906-4.394531 1.246094-6.4375.097656-.394531.175781-.796875.238281-1.195312.378906-2.414063.421875-4.578125.453125-6.15625.011718-.550782.023437-1.304688.054687-1.5625.019531-.203125.039063-.402344.054688-.605469.113281-1.671875.277343-3.28125.503906-4.921875.007813-.039062.011719-.082031.015625-.121094.371094-2.847656.121094-5.265625-.027344-6.710937-.015625-.160157-.035156-.320313-.046875-.472657 0-.195312-.007812-.386718-.015625-.578124-.199218-3.929688-.121094-6.339844-.085937-7.101563.148437-1.582031.054687-3.210937-.332031-4.84375-.007813-.023437-.585938-2.617187-1.085938-7.332031-.019531-.199219-.046875-.394532-.074219-.589844-.007812-.132812-.015625-.265625-.019531-.398438-.070312-1.4375-.191406-3.847656-1.019531-6.640624-.015625-.042969-.027344-.085938-.039063-.125-.480468-1.566407-.90625-3.152344-1.269531-4.710938-.046875-.203125-.097656-.40625-.152344-.609375-.0625-.226563-.183593-.914063-.273437-1.410156-.265625-1.503907-.632813-3.5625-1.375-5.84375-.132813-.40625-.28125-.808594-.449219-1.203125-.832031-1.964844-1.535156-3.875-2.152344-5.835938-.105469-.320312-.214843-.640625-.339843-.957031-4.4375-11.324219-10.0625-24.476563-20.714844-37.34375-11.632813-14.609375-25.898438-26.820313-41.273438-35.320313-.070312-.039062-.140625-.078124-.214844-.113281-17.902343-9.519531-37.53125-14.847656-58.351562-15.84375-2.867188-.296875-5.367188-.023437-7.078125.160157-.414063.046874-.96875.109374-1.203125.121093-.300781-.007812-.605469-.003906-.90625.003907-.773438.03125-1.585938.039062-2.460938.027343-2.921874-.191406-5.589843.0625-8.132812.761719-1.058594.226562-2.460938.382812-3.9375.546875-3.101562.347656-6.867188.769531-10.902344 2.144531-10.488281 2.007813-19.675781 6.542969-27.820312 10.5625l-2.1875 1.078125c-.667969.328125-1.3125.707031-1.925782 1.128907-1.511718 1.046874-3.011718 1.941406-4.59375 2.734374-.167968.085938-.332031.175782-.5.265626-2.484374 1.371093-4.359374 2.957031-5.726562 4.113281-.382812.324219-.910156.769531-1.035156.863281-.238282.148438-.46875.304688-.695313.464844-.71875.511718-1.464843 1.003906-2.21875 1.464844-1.023437.625-1.964843 1.367187-2.8125 2.214843l-2.699219 2.707031c-.085937.085938-.167968.171876-.25.257813-.207031.214844-.882812.769531-1.378906 1.171875-1.210937.988281-2.710937 2.214844-4.257812 3.859375-8.703125 9.039063-15.171875 19.128906-19.835938 26.914063-.164062.269531-.316406.542968-.460937.824218-5.539063 10.71875-8.644531 21.566406-10.949219 30.769532-.082031.332031-.152344.664062-.210938 1-1.914062 10.660156-1.832031 20.761718-1.542968 31.917968.019531.761719.097656 1.519532.230468 2.269532 1.757813 9.796874 3.824219 20.199218 7.972657 30.226562.140625.339844.292969.671875.453125.996094 3.964844 7.898437 8.9375 17.09375 15.75 25.40625.222656.273437.457031.539062.699218.796875 5.925782 6.269531 13.136719 13.457031 21.722657 19.285156 1.773437 1.242187 3.433593 2.0625 4.652343 2.667969.28125.136718.566407.269531.835938.417968.046875.03125.097656.066407.144531.097657l2.546875 1.71875c1.179688.792969 2.464844 1.414062 3.820313 1.847656.59375.191406 1.160156.398437 1.675781.613281.179688.074219.359375.148438.539062.214844.164063.085938.320313.179688.480469.269531 1.359375.757813 3.40625 1.902344 6.160157 2.667969.226562.0625.449218.117188.675781.171875 1.0625.242187 1.992187.542969 2.847656.921875.890625.394531 1.820313.699219 2.769531.914062 1.230469.277344 2.449219.566407 3.652344.855469 6.167969 1.472657 13.09375 3.117188 20.804688 2.878907 1.144531.136718 2.242187.1875 3.28125.1875 2.074218 0 3.921874-.210938 5.460937-.390626.597656-.070312 1.386719-.160156 1.804687-.183593 2.671876.265625 5.355469-.050781 8.152344-.949219.332032-.082031.660156-.152344 1.003906-.214844.144532-.027344.285157-.054687.429688-.082031.039062-.003906.078125-.007813.117188-.007813 1.398437-.085937 3.851562-.234374 6.660156-1.226562 13.992187-4.03125 26.023437-10.375 36.75-19.371094.117187-.097656.230468-.195312.339844-.296875 8.542968-7.609375 15.824218-17.328125 21.066406-28.117187 4.679687-8.929688 5.925781-17.382813 6.753906-22.992188.089844-.59375.171875-1.164062.257812-1.71875.050782-.308594.085938-.621094.117188-.929687.792969-8.648438.253906-15.136719-.015625-18.300781.101563-1.484376-.023437-2.9375-.335937-4.324219l.007812.027343s-.011719-.042968-.023438-.105468c0-.007813 0-.011719-.003906-.019532-.050781-.273437-.171875-.980468-.289062-2.078124-.003906-.03125-.003906-.0625-.007813-.097657-.050781-.914062-.164062-2.640625-.796875-4.773437-.160156-.53125-.292968-1.023438-.40625-1.507813-.015625-.078125-.035156-.15625-.054687-.230469l-.03125-.175781c-.140625-.785156-.375-2.105469-.875-3.648437-.136719-.410156-.285157-.816406-.457031-1.214844-.242188-.578125-.453126-1.144531-.636719-1.726562-.101563-.324219-.214844-.648438-.339844-.96875-1.546875-3.933594-4.414063-11.242188-10.179687-18.230469-5.664063-7.097657-12.628907-13.039063-20.15625-17.199219-.070313-.039062-.140626-.074219-.210938-.113281-8.714844-4.632813-18.246094-7.242188-28.339844-7.757813-2.023437-.183594-3.664062-.003906-4.605468.101563-.089844 0-.179688.003906-.269532.007812-.152344.003907-.304687.003907-.460937.007813-1.96875-.105469-3.820313.066406-5.621094.519531-.253906.039063-.511719.0625-.765625.089844-1.460938.160156-3.527344.394531-5.886719 1.128906-5.371093 1.117187-9.855469 3.328125-13.515625 5.132813l-.914062.453124c-.675782.328126-1.320313.710938-1.9375 1.136719-.3125.214844-.628906.402344-.960938.574219-.160156.082031-.324218.164062-.480468.253906-1.800782.992188-3.070313 2.066406-3.828126 2.707032l-.046874.039062c-.046876.035156-.09375.066406-.140626.101562-.140624.097657-.28125.191407-.425781.277344-1.023437.621094-1.964843 1.363282-2.8125 2.210938l-1.089843 1.09375-.125.101562c-.59375.484375-1.566407 1.28125-2.601563 2.378906-4.292969 4.460938-7.394531 9.289063-9.621094 13.003907-.164062.269531-.316406.546875-.460937.828125-2.792969 5.402344-4.34375 10.855468-5.382813 15.007812-.082031.328125-.152343.660156-.214843.996094-.953126 5.308594-.917969 10.300781-.789063 15.367188.019531.765624.097656 1.53125.230469 2.28125.800781 4.445312 1.828125 9.609374 3.921875 14.679687.140625.335937.292969.667969.457031.996094 1.898438 3.789062 4.308594 8.230469 7.757812 12.445312.226563.273438.464844.542969.707032.804688 2.847656 3.007812 6.335937 6.476562 10.671875 9.425781 1.152343.796875 2.203125 1.339844 2.851562 1.660156l.710938.476563c1.152343.777343 2.402343 1.386719 3.726562 1.820312.851563.464844 2.304688 1.207031 4.195313 1.730469.171875.046875.351562.09375.527344.136719.824218.347656 1.679687.621093 2.550781.820312.488281.109375.972656.226563 1.449219.339844 2.804687.667969 6.191406 1.480469 10.203124 1.480469.691407 0 1.40625-.027344 2.136719-.078125 8.265625-.605469 14.507813-7.792969 13.902344-16.054688-.601563-8.265625-7.78125-14.460937-16.015625-13.871093-.527344-.003907-2.109375-.382813-3.261719-.65625-.207031-.050782-.417969-.097657-.625-.148438-.535156-.195312-1.082031-.378906-1.636719-.546875-.511718-.265625-1.15625-.574219-1.917968-.871094-.902344-.582031-1.710938-.996093-2.246094-1.265625-1.710938-1.222656-3.460938-2.953125-5.007812-4.570312-1.347657-1.742188-2.554688-3.945313-3.585938-5.972656-.6875-1.808594-1.199219-4.0625-1.742188-6.96875-.0625-3-.054687-5.539063.28125-7.722657.632813-2.46875 1.433594-5.214843 2.601563-7.59375 1.355469-2.234375 3.113281-4.9375 5.132813-7.0625l.082031-.070312c.535156-.4375 1.410156-1.152344 2.347656-2.113281.085937-.058594.175781-.121094.261719-.179688.890625-.59375 1.601562-1.167969 2.109375-1.59375.761719-.421875 1.511719-.867188 2.242187-1.339844l.085938-.042968c2.539062-1.253907 4.9375-2.4375 6.5625-2.707032.792968-.132812 1.570312-.328125 2.332031-.585937.1875-.023438.375-.039063.566406-.0625.8125-.089844 1.84375-.207031 3.019531-.421875.410157-.011719.828126-.007813 1.230469-.019532 1.011719 0 1.867188-.074218 2.480469-.140624 5.679688.269531 10.992188 1.695312 15.800781 4.230468 5.171875 2.882813 8.929688 6.84375 11.171875 9.667969.066406.085937.136719.171875.207032.253906 2.441406 2.941407 3.902343 6.273438 5.269531 9.730469.277343.847656.582031 1.699219.910156 2.539062.09375.507813.21875 1.171876.414063 1.925782.148437.617187.304687 1.226562.472656 1.828125.023437.285156.054687.605469.101562.953125.128906 1.183594.273438 2.191406.40625 3.019531.015625.96875.082032 1.828125.140625 2.511719.21875 2.558594.582031 6.804687.078125 12.648437-.070312.472657-.144531.953125-.214844 1.445313-.664062 4.480468-1.347656 9.117187-3.714843 13.574218-.089844.171876-.175781.34375-.261719.515626-2.457031 5.097656-6.871094 12.488281-13.957031 18.859374-7.519531 6.261719-16.042969 10.683594-26.042969 13.507813-1.027344.0625-2.542969.179687-4.296875.589844-.894531.171875-1.785156.371093-2.660156.59375-2.265625-.035157-4.261719.191406-5.925781.386719-.585938.066406-1.347657.15625-1.785157.179687-1.242187-.226563-2.511719-.292969-3.773437-.199219-3.84375.273438-8.355469-.792968-13.566406-2.039062-.898438-.214844-1.804688-.429688-2.714844-.640625-1.785156-.714844-3.621094-1.308594-5.554688-1.808594-.058594-.03125-.113281-.0625-.167968-.09375-1.03125-.574219-2.539063-1.417969-4.464844-2.128906-.507813-.207031-1.023438-.40625-1.542969-.597657l-.792969-.535156c-1.734375-1.210937-3.359375-2.015625-4.5625-2.609375-.296875-.148437-.691406-.34375-.886718-.449219-.046876-.035156-.097657-.066406-.144532-.101562-6.074218-4.101562-11.714844-9.707031-16.472656-14.722656-4.660156-5.785156-8.3125-12.496094-11.5625-18.941406-2.753906-6.835938-4.375-14.796876-5.765625-22.460938-.21875-8.835938-.246094-16.808594 1.023437-24.230469 1.835938-7.285156 4.246094-15.671875 8.160157-23.363281 3.835937-6.382812 9.035156-14.449219 15.523437-21.171875.070313-.070313.132813-.136719.203125-.210937.203125-.214844.871094-.761719 1.359375-1.160157 1.136719-.929687 2.542969-2.074219 3.996094-3.585937l1.40625-1.40625c.710938-.460938 1.410156-.9375 2.097656-1.421875 1.652344-1.085938 2.992188-2.21875 3.992188-3.066407.3125-.265624.722656-.609374.96875-.804687 2.234375-1.15625 4.4375-2.453125 6.566406-3.875l1.292969-.636719c7.3125-3.609375 14.214843-7.019531 20.945312-8.136718 1.078125-.179688 2.128907-.476563 3.140625-.882813.859375-.347656 2.898438-.574219 4.695313-.773437 2.207031-.25 4.691406-.527344 7.414062-1.148438.125.007812.246094.011719.371094.011719 1.445313.027343 2.804687.023437 4.128906-.019531 1.855469.042968 3.453125-.164063 4.660157-.296876.324218-.035156.742187-.082031 1.015624-.105468.296876.03125.597657.054687.894532.066406 16.5.722656 31.996094 4.871094 46.0625 12.328125 15.082031 8.363281 25.882812 19.726563 32.292968 27.792969.066407.085937.132813.167968.203126.253906 7.746093 9.324219 12.066406 19.328125 15.789062 28.800781.761719 2.367188 1.636719 4.75 2.605469 7.105469.085937.394531.191406.980469.28125 1.480469.1875 1.070312.421875 2.386719.800781 3.820312.445312 1.890625.953125 3.796875 1.515625 5.6875.003906.082031.007813.160157.011719.242188.039062.773437.089844 1.796875.261718 2.992187.40625 3.769532.863282 6.585938 1.203126 8.398438-.054688 1.839844-.070313 4.695312.113281 8.550781.019531 1.171875.125 2.179687.203125 2.941406.011718.121094.027344.246094.039062.375-.261718 1.984375-.464844 4.003907-.605468 6.011719-.140626 1.449219-.164063 2.789062-.1875 3.878906-.011719.582032-.023438 1.277344-.058594 1.738282-.578125 2.492187-1.078125 5.082031-1.480469 7.71875-2.28125 10.582031-5.125 21.871093-11.964844 33.488281-.054687.089843-.105469.175781-.152343.265625-8.15625 14.519531-19.117188 27.410156-31.714844 37.296875-15.777344 11.96875-34.015625 20.125-54.21875 24.242187-.386719.078125-.6875.148438-1.066406.261719-.367188.078125-1.46875.152344-2.273438.207031-1.433594.097656-3.207031.21875-5.15625.542969l-4.476562.632813c-.316407.046874-.632813.101562-.945313.164062-.253906.054688-.421875.082031-.523437.097656-.140626-.011718-.277344-.019531-.417969-.023437-3.058594-.152344-6.019531-.042969-8.632813.054687-3.25.125-6.320312.238282-8.558594-.1875-.824218-.15625-1.65625-.242187-2.492187-.261718-10.6875-.226563-21.644531-3.378907-33.792969-7.214844-3.136718-1.363282-6.382812-2.640625-9.671875-3.792969-.75-.308594-1.859375-.9375-3.03125-1.605469-1.488281-.84375-3.171875-1.800781-5.136719-2.703125l-3.625-1.726562-3.308593-2.273438c-1.75-1.242187-3.464844-2.277343-4.976563-3.191406-1.367187-.824219-2.65625-1.605469-3.5625-2.296875-.0625-.046875-.125-.09375-.1875-.140625-9.574218-7.097656-18.964844-16.296875-28.695312-28.117187-7.3125-9.761719-13.777344-21.476563-19.761719-35.796876-4.132813-11.359374-6.941406-24.488281-8.8125-41.230468-.234375-17.199219.921875-30.871094 3.636719-42.929688 4.308594-15.792968 9.558594-29.027344 16.046875-40.441406 8.828125-14.121094 17.839843-25.503906 27.546875-34.789062.050781-.050782.097656-.097657.148437-.144532 1.050781-1.035156 2.449219-2.15625 3.929688-3.34375 1.457031-1.167968 3.105469-2.488281 4.753906-3.996094l3.652344-3.203124 4.023437-2.640626c1.855469-1.175781 3.507813-2.398437 4.96875-3.480468 1.425782-1.054688 2.773438-2.050782 3.847656-2.652344 3.472657-1.789062 6.960938-3.714844 10.386719-5.730469 11.882813-5.609375 25.644531-11.6875 39.441407-13.878906.691406-.109375 1.375-.265625 2.046874-.472656 3.332032-1.019531 7.40625-1.40625 11.71875-1.8125 2.964844-.28125 6.035157-.570313 9.261719-1.085938.195313-.03125.394531-.066406.589844-.109375.199219-.035156.707031-.09375 1.902344-.019531.265625.015625.53125.023437.792969.023437l5.554687.039063c2.046875.066406 3.941406-.019531 5.621094-.097656 1.582031-.070313 3.222656-.140625 4.105469-.023438.320312.042969.644531.074219.96875.097657 26.351562 1.792968 52.125 9.59375 74.535156 22.566406 19.089844 11.308594 36.523437 27.144531 50.414062 45.800781.046875.058594.089844.117187.136719.175781 12.46875 16.230469 19.257813 32.863282 24.246094 47.03125 1.089843 3.585938 2.269531 7.21875 3.511719 10.804688.332031 1.25.589843 2.703125.859374 4.226562.265626 1.488282.539063 3.027344.921876 4.660156l1.898437 8.558594c.011719.054688.023437.109375.039063.164063.097656.429687.160156 1.417969.210937 2.285156.0625 1 .128906 2.117187.28125 3.351563.597656 6.335937 1.144531 10.671874 1.425781 12.769531-.0625 2.097656-.152344 6.46875-.074218 12.925781-.019532 1.234375.027343 2.355469.070312 3.359375.039062.90625.082031 1.9375.027344 2.402344-.007813.050781-.015625.105469-.023438.160156l-.992187 8.824219c-.203125 1.664062-.316407 3.238281-.421875 4.761718-.117188 1.613282-.226563 3.148438-.433594 4.496094-.851562 3.691406-1.65625 7.515625-2.394531 11.375-3.589844 15.234375-8.8125 33.273438-20.148438 51.859375-.035156.058594-.070312.117188-.105469.175781-12.8125 21.660157-29.96875 40.863282-49.613281 55.535157-23.9375 17.511719-52.5 29.542969-82.601562 34.804687-.269531.046875-.542969.105469-.816407.167969-1.425781.332031-3.445312.472656-5.585937.621094-1.824219.128906-3.882813.269531-6.050781.558593l-6.523438.707032c-.214844.019531-.425781.050781-.640625.082031-1.480469.226563-2.578125.304687-3.359375.242187-.199218-.015624-.394531-.027343-.59375-.035156-3.386718-.128906-6.691406-.101562-9.886718-.078125-5.636719.050781-10.960938.089844-15.710938-.742187-.566406-.101563-1.136719-.167969-1.714844-.199219-17.832031-1.050781-35.695312-6.621094-50.882812-11.988281-4.363282-1.925782-8.878906-3.828125-13.425782-5.652344-1.859374-.800781-3.9375-1.988281-6.136718-3.246094-1.867188-1.070312-3.796875-2.171875-5.933594-3.25l-5.777344-3.039062-5.390625-3.71875c-1.945312-1.390625-3.855469-2.636719-5.703125-3.839844-2.292968-1.492188-4.457031-2.902344-6.285156-4.339844-.042969-.035156-.085938-.066406-.128906-.101562-13.148438-10.105469-25.921875-22.875-38.015625-37.988282-25.703125-35.742187-41.246094-79.265624-42.351563-126.300781.375-19.105469 2.441406-36.070312 6.277344-51.578125 6.042969-21.53125 14.113281-40.855468 23.992188-57.445312 12.054687-18.957032 25.398437-35.253906 39.667968-48.429688.035156-.035156.070313-.066406.105469-.101562 1.933594-1.820313 4.183594-3.605469 6.566406-5.496094 1.816407-1.441406 3.691407-2.929688 5.589844-4.558594l5.636719-4.664062 6.082031-3.976563c2.09375-1.316406 4.023437-2.65625 5.886719-3.953125 2.453125-1.703125 4.769531-3.3125 6.875-4.453125 4.707031-2.515625 9.394531-5.019531 14.0625-7.515625 22.640625-10.507812 40.082031-16.332031 56.507812-18.882812.503906-.078125 1.003906-.179688 1.496094-.3125 5.851562-1.53125 12.25-2.074219 19.023438-2.648438 3.355468-.285156 6.820312-.582031 10.34375-1.007812.148437-.019532.300781-.039063.449218-.0625 1.246094-.1875 2.785156-.234375 4.851563-.132813.164062.007813.332031.011719.496093.015625l7.609376.105469c2.304687.085937 4.46875.054687 6.558593.027344 2.734375-.039063 5.3125-.078125 7.371094.191406.242187.03125.488281.054687.734375.074219 36.511719 2.894531 72.15625 14.28125 103.003906 32.882812 26.230469 16.039063 49.917969 38.136719 68.503906 63.902344.03125.046875.066407.09375.101563.136719 17.730469 24.003906 27.09375 48.722656 32.601563 65.289062l.550781 1.824219c1.335937 4.390625 2.609375 8.578125 3.820312 12.554688.578125 2.230468.992188 4.566406 1.433594 7.035156.308594 1.726562.625 3.515625 1.011719 5.324218l.4375 2.207032c.660156 3.316406 1.277344 6.421875 1.859375 9.316406.261719 1.308594.367187 2.878906.476562 4.546875.085938 1.242187.167969 2.527344.324219 3.894531l1.257812 13.324219c-4.910156 87.488281-59.808593 161.839844-136.53125 194.882813zm0 0"/></svg>